<?xml version="1.0" encoding="utf-8"?>
<svg width="182px" height="61px" viewbox="0 0 182 61" version="1.1" xmlns:xlink="http://www.w3.org/1999/xlink" xmlns="http://www.w3.org/2000/svg">
  <defs>
    <rect width="182" height="61" id="artboard_1" />
    <clipPath id="clip_1">
      <use xlink:href="#artboard_1" clip-rule="evenodd" />
    </clipPath>
  </defs>
  <g id="Pixel-7" clip-path="url(#clip_1)">
    <use xlink:href="#artboard_1" stroke="none" fill="#FFFFFF" fill-opacity="0" />
    <g id="EVERYONE" fill="#FFFFFF" transform="translate(1 -1.9999695)">
      <path d="M105.091 33.4922Q108.316 37.0254 113.678 37.0254Q119.162 37.0254 122.432 33.4395Q125.701 29.8535 125.701 23.6836Q125.701 18.0059 122.511 14.4902Q119.32 10.9746 114.1 10.9746Q108.439 10.9746 105.152 14.5957Q101.865 18.2168 101.865 24.2988Q101.865 29.959 105.091 33.4922ZM3.30469 36.6035L16.6641 36.6035L16.6641 33.9316L6.25781 33.9316L6.25781 25.1074L15.3633 25.1074L15.3633 22.4531L6.25781 22.4531L6.25781 14.0684L16.1016 14.0684L16.1016 11.3965L3.30469 11.3965L3.30469 36.6035ZM30.9199 36.6035L40.2539 11.3965L37.0723 11.3965L29.9531 31.3477Q29.5137 32.5605 29.373 33.6152L29.3027 33.6152Q29.127 32.3496 28.793 31.3828L21.8145 11.3965L18.5273 11.3965L27.668 36.6035L30.9199 36.6035ZM57.2344 36.6035L43.875 36.6035L43.875 11.3965L56.6719 11.3965L56.6719 14.0684L46.8281 14.0684L46.8281 22.4531L55.9336 22.4531L55.9336 25.1074L46.8281 25.1074L46.8281 33.9316L57.2344 33.9316L57.2344 36.6035ZM76.6406 36.6035L80.1563 36.6035L75.4277 29.0273Q74.918 28.2012 74.5049 27.5771Q74.0918 26.9531 73.6699 26.4609Q73.248 25.9688 72.7822 25.6084Q72.3164 25.248 71.6836 24.9668L71.6836 24.8965Q72.9668 24.5625 73.9951 23.9561Q75.0234 23.3496 75.7529 22.4883Q76.4824 21.627 76.8779 20.5283Q77.2734 19.4297 77.2734 18.1113Q77.2734 16.4238 76.6934 15.167Q76.1133 13.9102 75.085 13.0664Q74.0566 12.2227 72.6592 11.8096Q71.2617 11.3965 69.6094 11.3965L62.0859 11.3965L62.0859 36.6035L65.0391 36.6035L65.0391 25.8809L67.4648 25.8809Q68.291 25.8809 68.9502 26.083Q69.6094 26.2852 70.1807 26.7246Q70.752 27.1641 71.2969 27.8584Q71.8418 28.5527 72.4219 29.5371L76.6406 36.6035ZM100.002 11.3965L91.6875 27.2871L91.6875 36.6035L88.7344 36.6035L88.7344 27.3574L80.6309 11.3965L83.9883 11.3965L89.6309 22.7871Q89.7363 22.998 90.2461 24.334L90.2988 24.334Q90.4746 23.7363 90.9668 22.7871L96.873 11.3965L100.002 11.3965ZM150.979 36.6035L147.357 36.6035L134.385 16.5117Q133.893 15.7559 133.576 14.9297L133.471 14.9297Q133.611 15.7383 133.611 18.3926L133.611 36.6035L130.658 36.6035L130.658 11.3965L134.49 11.3965L147.111 31.1719Q147.902 32.4023 148.131 32.8594L148.201 32.8594Q148.025 31.7695 148.025 29.1504L148.025 11.3965L150.979 11.3965L150.979 36.6035ZM157.588 36.6035L170.947 36.6035L170.947 33.9316L160.541 33.9316L160.541 25.1074L169.646 25.1074L169.646 22.4531L160.541 22.4531L160.541 14.0684L170.385 14.0684L170.385 11.3965L157.588 11.3965L157.588 36.6035ZM107.438 16.5117Q109.916 13.6465 113.889 13.6465Q117.967 13.6465 120.287 16.3711Q122.607 19.0957 122.607 24.0879Q122.607 28.957 120.217 31.6641Q117.826 34.3711 113.678 34.3711Q109.793 34.3711 107.376 31.5322Q104.959 28.6934 104.959 24.0352Q104.959 19.377 107.438 16.5117ZM65.0391 23.209L65.0391 14.0684L69.082 14.0684Q71.5605 14.0684 72.8701 15.2021Q74.1797 16.3359 74.1797 18.3574Q74.1797 19.4824 73.793 20.3877Q73.4063 21.293 72.7207 21.917Q72.0352 22.541 71.0947 22.875Q70.1543 23.209 69.0469 23.209L65.0391 23.209Z" />
    </g>
    <g id="APP" transform="translate(109 12.999908)">
      <path d="M22.8164 36.6035L19.5469 36.6035L16.875 29.5371L6.1875 29.5371L3.67383 36.6035L0.386719 36.6035L10.0547 11.3965L13.1133 11.3965L22.8164 36.6035ZM29.4785 27.0762L29.4785 36.6035L26.5254 36.6035L26.5254 11.3965L33.4512 11.3965Q37.4941 11.3965 39.7178 13.3652Q41.9414 15.334 41.9414 18.9199Q41.9414 22.5059 39.4717 24.791Q37.002 27.0762 32.8008 27.0762L29.4785 27.0762ZM49.6406 36.6035L49.6406 27.0762L52.9629 27.0762Q57.1641 27.0762 59.6338 24.791Q62.1035 22.5059 62.1035 18.9199Q62.1035 15.334 59.8799 13.3652Q57.6563 11.3965 53.6133 11.3965L46.6875 11.3965L46.6875 36.6035L49.6406 36.6035ZM29.4785 14.0684L29.4785 24.4043L32.5723 24.4043Q35.6309 24.4043 37.2393 23.0068Q38.8477 21.6094 38.8477 19.0605Q38.8477 14.0684 32.9414 14.0684L29.4785 14.0684ZM49.6406 24.4043L49.6406 14.0684L53.1035 14.0684Q59.0098 14.0684 59.0098 19.0605Q59.0098 21.6094 57.4014 23.0068Q55.793 24.4043 52.7344 24.4043L49.6406 24.4043ZM15.9082 26.8828L11.9531 16.1426Q11.7598 15.6152 11.5664 14.4551L11.4961 14.4551Q11.3203 15.5273 11.0918 16.1426L7.17188 26.8828L15.9082 26.8828Z" />
    </g>
  </g>
</svg>